<svg xmlns="http://www.w3.org/2000/svg" width="38.029" height="25.353" viewBox="0 0 38.029 25.353"><defs><style>.a{fill:#f3f3f3;}.b{fill:#685f5f;}</style></defs><g transform="translate(-91.816 -3776.591)"><rect class="a" width="38.029" height="25.353" rx="4" transform="translate(91.816 3776.591)"/><path class="b" d="M1.63,3.69v.59A3.4,3.4,0,0,0,2,6.13a1.34,1.34,0,0,0,1.21.59,1.55,1.55,0,0,0,1.11-.34,1.5,1.5,0,0,0,.42-1.06H6.38a2.81,2.81,0,0,1-.94,2A3.29,3.29,0,0,1,3.23,8,3,3,0,0,1,.86,7,4.16,4.16,0,0,1,0,4.24V3.77a4.59,4.59,0,0,1,.4-2A3,3,0,0,1,1.53.46,3.19,3.19,0,0,1,3.25,0,3.2,3.2,0,0,1,5.43.72a3,3,0,0,1,1,2H4.78a1.67,1.67,0,0,0-.43-1.1,1.54,1.54,0,0,0-1.1-.34A1.37,1.37,0,0,0,2,1.9a3.3,3.3,0,0,0-.37,1.79ZM11.07.11,14,7.93H12.28l-.54-1.61H8.91L8.38,7.93H6.66L9.57.11ZM11.3,5l-1-2.93L9.35,5Zm6.09-3.73a1.41,1.41,0,0,1,.95.3,1.08,1.08,0,0,1,.34.84h1.61a2.19,2.19,0,0,0-.37-1.26,2.44,2.44,0,0,0-1-.86,3.59,3.59,0,0,0-1.5-.3,3.82,3.82,0,0,0-1.5.28,2.27,2.27,0,0,0-1,.78,1.86,1.86,0,0,0-.36,1.13,2.17,2.17,0,0,0,1.33,1.94,8.91,8.91,0,0,0,1.33.53,4.38,4.38,0,0,1,1.16.51.86.86,0,0,1,.32.71.77.77,0,0,1-.32.65,1.58,1.58,0,0,1-.9.23c-1,0-1.55-.43-1.55-1.29H14.29a2.31,2.31,0,0,0,.39,1.33,2.67,2.67,0,0,0,1.13.91,4.14,4.14,0,0,0,1.64.3,3.39,3.39,0,0,0,2.07-.58,1.9,1.9,0,0,0,.77-1.59,2.05,2.05,0,0,0-.63-1.53,5,5,0,0,0-2-1,4.52,4.52,0,0,1-1.14-.48.76.76,0,0,1-.38-.64.8.8,0,0,1,.33-.66,1.53,1.53,0,0,1,.92-.24ZM26,.11V3.28H22.88V.11H21.27V7.93h1.61V4.58H26V7.93h1.61V.11Z" transform="translate(96.822 3785.602)"/></g></svg>