<svg xmlns="http://www.w3.org/2000/svg" width="38.029" height="25.353" viewBox="0 0 38.029 25.353"><defs><style>.a{fill:#f3f3f3;}.b{fill:#005baa;}.c{fill:#f58220;}</style></defs><rect class="a" width="38.029" height="25.353" rx="4"/><g transform="translate(5.956 7.338)"><path class="b" d="M68.857,171.8h9.521v.9H71.119a.907.907,0,0,0-.9.9v7.259a.907.907,0,0,0,.9.9h7.259v.912H68.857a1.359,1.359,0,0,1-1.357-1.357v-8.17A1.354,1.354,0,0,1,68.857,171.8Z" transform="translate(-67.5 -171.8)"/><path class="b" d="M241.531,172.8a.907.907,0,0,0-.9.9v7.259a.9.9,0,1,0,1.809,0V173.7A.894.894,0,0,0,241.531,172.8Zm3.633.9v7.266a.8.8,0,0,0,.007.132v.111c0,.014.007.028.007.042l.007.028.007.028.007.014c0,.007.007.014.007.028l.007.014.007.014.007.014.007.007.007.014a1.309,1.309,0,0,0,.084.125.036.036,0,0,1,.014.028,1.25,1.25,0,0,0,.139.132c.014.014.042.028.056.042l.014.007a.867.867,0,0,0,.188.084c.007,0,.028.007.035.007.028.007.244.028.244.028a2.045,2.045,0,0,0,0-4.064v-.947a2.041,2.041,0,0,0,.3-4,.748.748,0,0,0-.216-.049.339.339,0,0,0-.084-.007A.913.913,0,0,0,245.163,173.7Zm3.48,3.354a2.949,2.949,0,0,1-.96,5.728H237v-.9a.907.907,0,0,0,.9-.9v-7.259a.907.907,0,0,0-.9-.9v-.9h10.453a2.706,2.706,0,0,1,1.684.605,2.605,2.605,0,0,1,1.009,2.1v.014a2.8,2.8,0,0,1-.035.438A2.7,2.7,0,0,1,248.643,177.05Z" transform="translate(-224.287 -171.893)"/><path class="c" d="M126.1,201.533a3.633,3.633,0,1,1,3.633,3.633A3.631,3.631,0,0,1,126.1,201.533Zm3.967-1.67a3,3,0,0,0,1.51-.633,3,3,0,0,0-1.51-.633Zm-2.185-.626a3,3,0,0,0,1.51.633V198.6A2.879,2.879,0,0,0,127.882,199.236Zm1.51,1.308a3.675,3.675,0,0,1-1.99-.828,3.034,3.034,0,0,0-.605,1.468h2.589v-.64Zm2.665-.828a3.6,3.6,0,0,1-1.99.828v.64h2.589A2.815,2.815,0,0,0,132.057,199.716Zm-2.665,3.473a2.97,2.97,0,0,0-1.51.633,3,3,0,0,0,1.51.633Zm2.192.633a3,3,0,0,0-1.51-.633v1.267A2.97,2.97,0,0,0,131.584,203.823Zm-1.517-1.315a3.675,3.675,0,0,1,1.99.828,2.96,2.96,0,0,0,.6-1.468h-2.589Zm-2.665.828a3.6,3.6,0,0,1,1.99-.828v-.64H126.8A2.934,2.934,0,0,0,127.4,203.335Z" transform="translate(-122.172 -196.084)"/></g></svg>