<svg xmlns="http://www.w3.org/2000/svg" width="38.029" height="25.353" viewBox="0 0 38.029 25.353"><defs><style>.a{fill:#f3f3f3;}.b{opacity:0;}.c{fill:#fff;}.d{fill:#f26122;}.e{fill:#ea1d25;}.f{fill:#f69e1e;}</style></defs><rect class="a" width="38.029" height="25.353" rx="4"/><g transform="translate(3.684 2.535)"><g class="b"><rect class="c" width="30.669" height="20.282"/></g><rect class="d" width="8.089" height="13.215" transform="translate(11.29 3.534)"/><path class="e" d="M10.433,8.406A8.382,8.382,0,0,1,13.6,1.8a8.406,8.406,0,1,0,0,13.215A8.382,8.382,0,0,1,10.433,8.406Z" transform="translate(1.728 1.735)"/><path class="f" d="M.4.326H.341V0H.42l.1.23L.618,0H.7V.324H.642V.079L.555.293H.491L.4.079V.325Zm-.238,0H.111V.056H0V0H.277V.056H.158V.324Z" transform="translate(27.96 15.022)"/><path class="f" d="M13.6,8.4A8.406,8.406,0,0,1,0,15.008a8.406,8.406,0,0,0,1.41-11.8A8.24,8.24,0,0,0,0,1.793,8.406,8.406,0,0,1,13.6,8.4Z" transform="translate(15.331 1.74)"/></g></svg>