<svg xmlns="http://www.w3.org/2000/svg" width="38.029" height="25.353" viewBox="0 0 38.029 25.353"><defs><style>.a{fill:#f3f3f3;}.b{fill:#2a2a6c;}</style></defs><rect class="a" width="38.029" height="25.353" rx="4"/><path class="b" d="M13.48,7.543a5.647,5.647,0,0,1-2.063-.389l.341-1.584a3.976,3.976,0,0,0,1.883.476h.05c.564-.008,1.133-.234,1.133-.721.008-.31-.259-.557-.983-.911s-1.656-.932-1.656-1.989C12.185,1,13.488,0,15.354,0a5.082,5.082,0,0,1,1.775.325L16.8,1.91a3.575,3.575,0,0,0-1.521-.342c-.116,0-.234.006-.349.017-.547.072-.792.359-.792.61,0,.307.392.513.889.773.789.413,1.77.927,1.765,2.135l.04-.063c-.008,1.521-1.305,2.5-3.3,2.5Zm5.25-.063h-2L19.578.69A.861.861,0,0,1,20.37.15h1.584l1.536,7.328H21.732L21.5,6.386H19.118L18.73,7.479Zm1.885-5.348-1,2.749h1.577ZM10.062,7.456H8.16L9.745.127h1.9L10.062,7.455ZM5.9,7.431H3.835L2.322,1.577A.8.8,0,0,0,1.87.935,7.857,7.857,0,0,0,0,.317L.048.1H3.272a.886.886,0,0,1,.879.745l.792,4.238L6.917.1h2.06L5.9,7.431Z" transform="translate(7.257 8.897)"/></svg>